<svg xmlns="http://www.w3.org/2000/svg" xmlns:xlink="http://www.w3.org/1999/xlink" id="processonSvg1000" viewBox="302.0 152.0 558.0 464.0" width="558.0" height="464.0"><defs id="ProcessOnDefs1001"><marker id="ProcessOnMarker1011" markerUnits="userSpaceOnUse" orient="auto" markerWidth="16.23606797749979" markerHeight="10.550836550532098" viewBox="-1.0 -1.3763819204711736 16.23606797749979 10.550836550532098" refX="-1.0" refY="3.8990363547948754"><path id="ProcessOnPath1012" d="M12.0 3.8990363547948754L0.0 7.798072709589751V0.0Z" stroke="#323232" stroke-width="2.0" fill="#323232" transform="matrix(1.0,0.0,0.0,1.0,0.0,0.0)"/></marker><marker id="ProcessOnMarker1015" markerUnits="userSpaceOnUse" orient="auto" markerWidth="16.23606797749979" markerHeight="10.550836550532098" viewBox="-1.0 -1.3763819204711736 16.23606797749979 10.550836550532098" refX="-1.0" refY="3.8990363547948754"><path id="ProcessOnPath1016" d="M12.0 3.8990363547948754L0.0 7.798072709589751V0.0Z" stroke="#323232" stroke-width="2.0" fill="#323232" transform="matrix(1.0,0.0,0.0,1.0,0.0,0.0)"/></marker></defs><g id="ProcessOnG1002"><path id="ProcessOnPath1003" d="M302.0 152.0H860.0V616.0H302.0V152.0Z" fill="none"/><g id="ProcessOnG1004"><g id="ProcessOnG1005" transform="matrix(1.0,0.0,0.0,1.0,420.0,223.0)" opacity="1.0"><path id="ProcessOnPath1006" d="M0.0 0.0L270.0 0.0L270.0 236.0L0.0 236.0Z" stroke="#323232" stroke-width="2.0" stroke-dasharray="none" opacity="1.0" fill="#ffffff"/></g><g id="ProcessOnG1007" transform="matrix(1.0,0.0,0.0,1.0,476.0,223.0)" opacity="1.0"><path id="ProcessOnPath1008" d="M0.0 0.0L158.0 0.0L158.0 236.0L0.0 236.0Z" stroke="#323232" stroke-width="2.0" stroke-dasharray="none" opacity="1.0" fill="#e5e5e5"/></g><g id="ProcessOnG1009"><path id="ProcessOnPath1010" d="M345.0 223.0L592.5 223.0L592.5 223.0L824.7639320225002 223.0" stroke="#323232" stroke-width="2.0" stroke-dasharray="none" fill="none" marker-end="url(#ProcessOnMarker1011)"/></g><g id="ProcessOnG1013"><path id="ProcessOnPath1014" d="M476.0 172.0L476.0 365.5L476.0 365.5L476.0 543.7639320225002" stroke="#323232" stroke-width="2.0" stroke-dasharray="none" fill="none" marker-end="url(#ProcessOnMarker1015)"/></g><g id="ProcessOnG1017" transform="matrix(1.0,0.0,0.0,1.0,764.0,177.0)" opacity="1.0"><path id="ProcessOnPath1018" d="M0.0 0.0L66.0 0.0L66.0 40.0L0.0 40.0Z" stroke="#323232" stroke-width="0.0" stroke-dasharray="none" opacity="1.0" fill="none"/><g id="ProcessOnG1019" transform="matrix(1.0,0.0,0.0,1.0,0.0,7.5)"><text id="ProcessOnText1020" fill="#000000" font-weight="normal" font-style="normal" text-decoration="blink" font-family="微软雅黑" text-anchor="middle" font-size="20" x="33.0" y="20.5">x轴</text></g></g><g id="ProcessOnG1021" transform="matrix(1.0,0.0,0.0,1.0,411.0,562.0)" opacity="1.0"><path id="ProcessOnPath1022" d="M0.0 0.0L46.0 0.0L46.0 34.0L0.0 34.0Z" stroke="#323232" stroke-width="0.0" stroke-dasharray="none" opacity="1.0" fill="none"/><g id="ProcessOnG1023" transform="matrix(1.0,0.0,0.0,1.0,0.0,4.5)"><text id="ProcessOnText1024" fill="#000000" font-weight="normal" font-style="normal" text-decoration="blink" font-family="微软雅黑" text-anchor="middle" font-size="20" x="23.0" y="20.5">y轴</text></g></g><g id="ProcessOnG1025" transform="matrix(1.0,0.0,0.0,1.0,322.0,328.0)" opacity="1.0"><path id="ProcessOnPath1026" d="M0.0 0.0L44.0 0.0L44.0 42.0L0.0 42.0Z" stroke="#323232" stroke-width="0.0" stroke-dasharray="none" opacity="1.0" fill="none"/><g id="ProcessOnG1027" transform="matrix(1.0,0.0,0.0,1.0,0.0,8.5)"><text id="ProcessOnText1028" fill="#000000" font-weight="normal" font-style="normal" text-decoration="blink" font-family="微软雅黑" text-anchor="middle" font-size="20" x="22.0" y="20.5">y</text></g></g><g id="ProcessOnG1029" transform="matrix(1.0,0.0,0.0,1.0,504.0,420.0)" opacity="1.0"><path id="ProcessOnPath1030" d="M0.0 0.0L102.0 0.0L102.0 25.0L0.0 25.0Z" stroke="#323232" stroke-width="0.0" stroke-dasharray="none" opacity="1.0" fill="none"/><g id="ProcessOnG1031" transform="matrix(1.0,0.0,0.0,1.0,0.0,0.0)"><text id="ProcessOnText1032" fill="#000000" font-weight="normal" font-style="normal" text-decoration="blink" font-family="微软雅黑" text-anchor="middle" font-size="20" x="51.0" y="20.5">手机屏</text></g></g><g id="ProcessOnG1033" transform="matrix(1.0,0.0,0.0,1.0,529.0,191.0)" opacity="1.0"><path id="ProcessOnPath1034" d="M0.0 0.0L47.0 0.0L47.0 23.0L0.0 23.0Z" stroke="#323232" stroke-width="0.0" stroke-dasharray="none" opacity="1.0" fill="none"/><g id="ProcessOnG1035" transform="matrix(1.0,0.0,0.0,1.0,0.0,-1.0)"><text id="ProcessOnText1036" fill="#000000" font-weight="normal" font-style="normal" text-decoration="blink" font-family="微软雅黑" text-anchor="middle" font-size="20" x="23.5" y="20.5">x</text></g></g><g id="ProcessOnG1037" transform="matrix(1.0,0.0,0.0,1.0,637.0,191.0)" opacity="1.0"><path id="ProcessOnPath1038" d="M0.0 0.0L70.0 0.0L70.0 23.0L0.0 23.0Z" stroke="#323232" stroke-width="0.0" stroke-dasharray="none" opacity="1.0" fill="none"/><g id="ProcessOnG1039" transform="matrix(1.0,0.0,0.0,1.0,0.0,-1.0)"><text id="ProcessOnText1040" fill="#000000" font-weight="normal" font-style="normal" text-decoration="blink" font-family="微软雅黑" text-anchor="middle" font-size="20" x="35.0" y="20.5">(y-x)/2</text></g></g><g id="ProcessOnG1041" transform="matrix(1.0,0.0,0.0,1.0,387.0,191.0)" opacity="1.0"><path id="ProcessOnPath1042" d="M0.0 0.0L70.0 0.0L70.0 23.0L0.0 23.0Z" stroke="#323232" stroke-width="0.0" stroke-dasharray="none" opacity="1.0" fill="none"/><g id="ProcessOnG1043" transform="matrix(1.0,0.0,0.0,1.0,0.0,-1.0)"><text id="ProcessOnText1044" fill="#000000" font-weight="normal" font-style="normal" text-decoration="blink" font-family="微软雅黑" text-anchor="middle" font-size="20" x="35.0" y="20.5">(y-x)/2</text></g></g></g></g></svg>