<svg xmlns="http://www.w3.org/2000/svg" xmlns:xlink="http://www.w3.org/1999/xlink" id="processonSvg1000" viewBox="396.0 -40.99999999999994 639.0 653.0" width="639.0" height="653.0"><defs id="ProcessOnDefs1001"><marker id="ProcessOnMarker1015" markerUnits="userSpaceOnUse" orient="auto" markerWidth="16.23606797749979" markerHeight="10.550836550532098" viewBox="-1.0 -1.3763819204711736 16.23606797749979 10.550836550532098" refX="-1.0" refY="3.8990363547948754"><path id="ProcessOnPath1016" d="M12.0 3.8990363547948754L0.0 7.798072709589751V0.0Z" stroke="#323232" stroke-width="2.0" fill="#323232" transform="matrix(1.0,0.0,0.0,1.0,0.0,0.0)"/></marker><marker id="ProcessOnMarker1019" markerUnits="userSpaceOnUse" orient="auto" markerWidth="16.23606797749979" markerHeight="10.550836550532098" viewBox="-1.0 -1.3763819204711736 16.23606797749979 10.550836550532098" refX="-1.0" refY="3.8990363547948754"><path id="ProcessOnPath1020" d="M12.0 3.8990363547948754L0.0 7.798072709589751V0.0Z" stroke="#323232" stroke-width="2.0" fill="#323232" transform="matrix(1.0,0.0,0.0,1.0,0.0,0.0)"/></marker></defs><g id="ProcessOnG1002"><path id="ProcessOnPath1003" d="M396.0 -40.99999999999994H1035.0V612.0H396.0V-41.0Z" fill="none"/><g id="ProcessOnG1004"><g id="ProcessOnG1005" transform="matrix(1.0,0.0,0.0,1.0,507.0,185.0)" opacity="1.0"><path id="ProcessOnPath1006" d="M0.0 0.0L419.0 0.0L419.0 274.0L0.0 274.0Z" stroke="#323232" stroke-width="2.0" stroke-dasharray="none" opacity="1.0" fill="#ffffff"/></g><g id="ProcessOnG1007" transform="matrix(1.0,0.0,0.0,1.0,507.0,185.0)" opacity="1.0"><path id="ProcessOnPath1008" d="M0.0 0.0L162.0 0.0L162.0 274.0L0.0 274.0Z" stroke="#000000" stroke-width="2.0" stroke-dasharray="none" opacity="1.0" fill="#e5e5e5"/></g><g id="ProcessOnG1009" transform="matrix(1.0,0.0,0.0,1.0,544.0,428.0)" opacity="1.0"><path id="ProcessOnPath1010" d="M0.0 0.0L101.0 0.0L101.0 43.0L0.0 43.0Z" stroke="#323232" stroke-width="0.0" stroke-dasharray="none" opacity="1.0" fill="none"/><g id="ProcessOnG1011" transform="matrix(1.0,0.0,0.0,1.0,0.0,9.0)"><text id="ProcessOnText1012" fill="#000000" font-weight="normal" font-style="normal" text-decoration="blink" font-family="微软雅黑" text-anchor="middle" font-size="20" x="50.5" y="20.5">手机屏</text></g></g><g id="ProcessOnG1013"><path id="ProcessOnPath1014" d="M472.0 185.0L710.0 185.0L710.0 185.0L932.7639320225002 185.0" stroke="#323232" stroke-width="2.0" stroke-dasharray="none" fill="none" marker-end="url(#ProcessOnMarker1015)"/></g><g id="ProcessOnG1017"><path id="ProcessOnPath1018" d="M507.0 115.0L507.0 353.5L507.0 353.5L507.0 576.7639320225002" stroke="#323232" stroke-width="2.0" stroke-dasharray="none" fill="none" marker-end="url(#ProcessOnMarker1019)"/></g><g id="ProcessOnG1021" transform="matrix(1.0,0.0,0.0,1.0,966.0,138.0)" opacity="1.0"><path id="ProcessOnPath1022" d="M0.0 0.0L49.0 0.0L49.0 30.0L0.0 30.0Z" stroke="#323232" stroke-width="0.0" stroke-dasharray="none" opacity="1.0" fill="none"/><g id="ProcessOnG1023" transform="matrix(1.0,0.0,0.0,1.0,0.0,2.5)"><text id="ProcessOnText1024" fill="#000000" font-weight="normal" font-style="normal" text-decoration="blink" font-family="微软雅黑" text-anchor="middle" font-size="20" x="24.5" y="20.5">x轴</text></g></g><g id="ProcessOnG1025" transform="matrix(1.0,0.0,0.0,1.0,434.0,304.0)" opacity="1.0"><path id="ProcessOnPath1026" d="M0.0 0.0L49.0 0.0L49.0 30.0L0.0 30.0Z" stroke="#323232" stroke-width="0.0" stroke-dasharray="none" opacity="1.0" fill="none"/><g id="ProcessOnG1027" transform="matrix(1.0,0.0,0.0,1.0,0.0,2.5)"><text id="ProcessOnText1028" fill="#000000" font-weight="normal" font-style="normal" text-decoration="blink" font-family="微软雅黑" text-anchor="middle" font-size="20" x="24.5" y="20.5">y</text></g></g><g id="ProcessOnG1029" transform="matrix(1.0,0.0,0.0,1.0,561.0,468.0)" opacity="1.0"><path id="ProcessOnPath1030" d="M0.0 0.0L49.0 0.0L49.0 30.0L0.0 30.0Z" stroke="#323232" stroke-width="0.0" stroke-dasharray="none" opacity="1.0" fill="none"/><g id="ProcessOnG1031" transform="matrix(1.0,0.0,0.0,1.0,0.0,2.5)"><text id="ProcessOnText1032" fill="#000000" font-weight="normal" font-style="normal" text-decoration="blink" font-family="微软雅黑" text-anchor="middle" font-size="20" x="24.5" y="20.5">x</text></g></g><g id="ProcessOnG1033" transform="matrix(1.0,0.0,0.0,1.0,416.0,498.0)" opacity="1.0"><path id="ProcessOnPath1034" d="M0.0 0.0L49.0 0.0L49.0 30.0L0.0 30.0Z" stroke="#323232" stroke-width="0.0" stroke-dasharray="none" opacity="1.0" fill="none"/><g id="ProcessOnG1035" transform="matrix(1.0,0.0,0.0,1.0,0.0,2.5)"><text id="ProcessOnText1036" fill="#000000" font-weight="normal" font-style="normal" text-decoration="blink" font-family="微软雅黑" text-anchor="middle" font-size="20" x="24.5" y="20.5">y轴</text></g></g><g id="ProcessOnG1037"><path id="ProcessOnPath1038" d="M568.0 185.0L588.0 185.0" stroke="#323232" stroke-width="2.0" stroke-dasharray="none" fill="none"/></g><g id="ProcessOnG1039"><path id="ProcessOnPath1040" d="M559.0 186.0L469.0 280.0" stroke="#323232" stroke-width="2.0" stroke-dasharray="none" fill="none"/></g><g id="ProcessOnG1041" transform="matrix(1.0,0.0,0.0,1.0,512.0,148.0)" opacity="1.0"><path id="ProcessOnPath1042" d="M0.0 0.0L49.0 0.0L49.0 30.0L0.0 30.0Z" stroke="#323232" stroke-width="0.0" stroke-dasharray="none" opacity="1.0" fill="none"/><g id="ProcessOnG1043" transform="matrix(1.0,0.0,0.0,1.0,0.0,2.5)"><text id="ProcessOnText1044" fill="#000000" font-weight="normal" font-style="normal" text-decoration="blink" font-family="微软雅黑" text-anchor="middle" font-size="20" x="24.5" y="20.5">x/3</text></g></g><g id="ProcessOnG1045"><path id="ProcessOnPath1046" d="M592.0 460.0L854.0 186.0" stroke="#323232" stroke-width="2.0" stroke-dasharray="none" fill="none"/></g><g id="ProcessOnG1047" transform="matrix(1.0,0.0,0.0,1.0,867.0,148.0)" opacity="1.0"><path id="ProcessOnPath1048" d="M0.0 0.0L49.0 0.0L49.0 30.0L0.0 30.0Z" stroke="#323232" stroke-width="0.0" stroke-dasharray="none" opacity="1.0" fill="none"/><g id="ProcessOnG1049" transform="matrix(1.0,0.0,0.0,1.0,0.0,2.5)"><text id="ProcessOnText1050" fill="#000000" font-weight="normal" font-style="normal" text-decoration="blink" font-family="微软雅黑" text-anchor="middle" font-size="20" x="24.5" y="20.5">y/3</text></g></g><g id="ProcessOnG1051" transform="matrix(1.0,0.0,0.0,1.0,676.0,410.0)" opacity="1.0"><path id="ProcessOnPath1052" d="M0.0 0.0L49.0 0.0L49.0 30.0L0.0 30.0Z" stroke="#323232" stroke-width="0.0" stroke-dasharray="none" opacity="1.0" fill="none"/><g id="ProcessOnG1053" transform="matrix(1.0,0.0,0.0,1.0,0.0,2.5)"><text id="ProcessOnText1054" fill="#000000" font-weight="normal" font-style="normal" text-decoration="blink" font-family="微软雅黑" text-anchor="middle" font-size="20" x="24.5" y="20.5">y/3</text></g></g><g id="ProcessOnG1055" transform="matrix(6.123233995736766E-17,1.0,-1.0,6.123233995736766E-17,851.0,80.00000000000009)" opacity="1.0"><path id="ProcessOnPath1056" d="M80.99999999999994 0.0Q72.89999999999995 0.0 72.89999999999995 9.0L72.89999999999995 132.5Q72.89999999999995 141.5 58.99999999999994 141.5Q72.89999999999995 141.5 72.89999999999995 150.5L72.89999999999995 274.0Q72.89999999999995 283.0 80.99999999999994 283.0" stroke="#323232" stroke-width="2.0" stroke-dasharray="none" opacity="1.0" fill="none"/><path id="ProcessOnPath1057" d="M0.0 0.0L80.99999999999994 0.0L80.99999999999994 283.0L0.0 283.0Z" stroke="#323232" stroke-width="0.0" stroke-dasharray="none" opacity="1.0" fill="none"/></g><g id="ProcessOnG1058" transform="matrix(1.0,0.0,0.0,1.0,612.25,91.0)" opacity="1.0"><path id="ProcessOnPath1059" d="M0.0 0.0L194.5 0.0L194.5 32.0L0.0 32.0Z" stroke="#323232" stroke-width="0.0" stroke-dasharray="none" opacity="1.0" fill="none"/><g id="ProcessOnG1060" transform="matrix(1.0,0.0,0.0,1.0,0.0,3.5)"><text id="ProcessOnText1061" fill="#000000" font-weight="normal" font-style="normal" text-decoration="blink" font-family="微软雅黑" text-anchor="middle" font-size="20" x="97.25" y="20.5">流星生成x坐标范围</text></g></g></g></g></svg>